<?xml version="1.0" encoding="iso-8859-1"?>
<!-- Generator: Adobe Illustrator 19.0.0, SVG Export Plug-In . SVG Version: 6.00 Build 0)  -->
<svg version="1.1" id="Capa_1" xmlns="http://www.w3.org/2000/svg" xmlns:xlink="http://www.w3.org/1999/xlink" x="0px" y="0px"
	 viewBox="0 0 496.485 496.485" style="enable-background:new 0 0 496.485 496.485;" xml:space="preserve">
<circle style="fill:#F16051;" cx="248.242" cy="248.242" r="248.242"/>
<rect x="44.994" y="79.903" style="fill:#FDBF5E;" width="307.2" height="371.588"/>
<path style="fill:#193651;" d="M351.418,459.249H44.994c-4.655,0-7.758-3.103-7.758-7.758V79.903c0-4.655,3.103-7.758,7.758-7.758
	h307.2c4.655,0,7.758,3.103,7.758,7.758v371.588C359.176,456.145,356.073,459.249,351.418,459.249z M52.752,443.733h291.685V87.661
	H52.752V443.733z"/>
<g>
	<rect x="70.912" y="106.527" style="fill:#FFFFFF;" width="254.448" height="318.836"/>
	<path style="fill:#FFFFFF;" d="M90.764,44.994c-8.533,0-15.515,6.982-15.515,15.515v38.788c0,8.533,6.982,16.291,15.515,16.291
		s15.515-6.982,15.515-16.291V60.509C107.055,51.976,100.073,44.994,90.764,44.994z"/>
</g>
<path style="fill:#193651;" d="M90.764,123.345c-13.188,0-23.273-10.861-23.273-24.048V60.509c0-13.188,10.861-23.273,23.273-23.273
	c13.188,0,23.273,10.861,23.273,23.273v38.788C114.812,113.261,103.952,123.345,90.764,123.345z M90.764,52.752
	c-4.655,0-7.758,3.879-7.758,7.758v38.788c0,4.655,3.879,8.533,7.758,8.533c3.879,0,7.758-3.879,7.758-8.533V60.509
	C99.297,55.855,95.418,52.752,90.764,52.752z"/>
<path style="fill:#FFFFFF;" d="M162.133,44.994c-8.533,0-15.515,6.982-15.515,15.515v38.788c0,8.533,6.982,16.291,15.515,16.291
	c8.533,0,15.515-6.982,15.515-16.291V60.509C178.424,51.976,171.442,44.994,162.133,44.994z"/>
<path style="fill:#193651;" d="M162.133,123.345c-13.188,0-23.273-10.861-23.273-24.048V60.509
	c0-13.188,10.861-23.273,23.273-23.273c13.188,0,23.273,10.861,23.273,23.273v38.788
	C186.182,113.261,175.321,123.345,162.133,123.345z M162.133,52.752c-4.655,0-7.758,3.879-7.758,7.758v38.788
	c0,4.655,3.879,8.533,7.758,8.533c4.655,0,7.758-3.879,7.758-8.533V60.509C170.667,55.855,166.788,52.752,162.133,52.752z"/>
<path style="fill:#FFFFFF;" d="M234.279,44.994c-8.533,0-15.515,6.982-15.515,15.515v38.788c0,8.533,6.982,15.515,15.515,15.515
	s15.515-6.982,15.515-15.515V60.509C249.794,51.976,242.812,44.994,234.279,44.994z"/>
<path style="fill:#193651;" d="M234.279,37.236c-13.188,0-23.273,10.861-23.273,23.273v38.788c0,13.188,10.861,24.048,23.273,24.048
	c12.412,0,23.273-10.861,23.273-24.048V60.509C257.552,47.321,246.691,37.236,234.279,37.236z M242.036,100.073
	c0,4.655-3.879,8.533-7.758,8.533c-3.879,0-7.758-3.879-7.758-8.533V61.285c0-4.655,3.879-7.758,7.758-7.758
	c3.879,0,7.758,3.879,7.758,7.758V100.073z"/>
<path style="fill:#FFFFFF;" d="M305.648,44.994c-8.533,0-15.515,6.982-15.515,15.515v38.788c0,8.533,6.982,16.291,15.515,16.291
	s15.515-6.982,15.515-16.291V60.509C321.164,51.976,314.182,44.994,305.648,44.994z"/>
<g>
	<path style="fill:#193651;" d="M305.648,123.345c-13.188,0-24.048-10.861-24.048-24.048V60.509
		c0-13.188,10.861-23.273,24.048-23.273c13.188,0,23.273,10.861,23.273,23.273v38.788
		C328.921,113.261,318.836,123.345,305.648,123.345z M305.648,52.752c-4.655,0-8.533,3.879-8.533,7.758v38.788
		c0,4.655,3.879,8.533,8.533,8.533s7.758-3.879,7.758-8.533V60.509C313.406,55.855,310.303,52.752,305.648,52.752z"/>
	<path style="fill:#193651;" d="M235.83,171.442H95.418c-4.655,0-7.758-3.103-7.758-7.758c0-4.655,3.103-7.758,7.758-7.758H235.83
		c4.655,0,7.758,3.103,7.758,7.758C243.588,168.339,240.485,171.442,235.83,171.442z"/>
	<path style="fill:#193651;" d="M300.994,171.442h-32.582c-4.655,0-7.758-3.103-7.758-7.758c0-4.655,3.103-7.758,7.758-7.758h32.582
		c4.655,0,7.758,3.103,7.758,7.758C308.752,168.339,304.873,171.442,300.994,171.442z"/>
	<path style="fill:#193651;" d="M300.994,213.333H160.582c-4.655,0-7.758-3.103-7.758-7.758c0-4.655,3.103-7.758,7.758-7.758
		h140.412c4.655,0,7.758,3.103,7.758,7.758C308.752,209.455,304.873,213.333,300.994,213.333z"/>
	<path style="fill:#193651;" d="M128,213.333H95.418c-4.655,0-7.758-3.103-7.758-7.758c0-4.655,3.103-7.758,7.758-7.758H128
		c4.655,0,7.758,3.103,7.758,7.758C135.758,209.455,132.655,213.333,128,213.333z"/>
	<path style="fill:#193651;" d="M235.83,254.448H95.418c-4.655,0-7.758-3.103-7.758-7.758c0-4.655,3.103-7.758,7.758-7.758H235.83
		c4.655,0,7.758,3.103,7.758,7.758C243.588,250.57,240.485,254.448,235.83,254.448z"/>
	<path style="fill:#193651;" d="M300.994,254.448h-32.582c-4.655,0-7.758-3.103-7.758-7.758c0-4.655,3.103-7.758,7.758-7.758h32.582
		c4.655,0,7.758,3.103,7.758,7.758C308.752,250.57,304.873,254.448,300.994,254.448z"/>
	<path style="fill:#193651;" d="M300.994,295.564H160.582c-4.655,0-7.758-3.103-7.758-7.758s3.103-7.758,7.758-7.758h140.412
		c4.655,0,7.758,3.103,7.758,7.758S304.873,295.564,300.994,295.564z"/>
	<path style="fill:#193651;" d="M128,295.564H95.418c-4.655,0-7.758-3.103-7.758-7.758s3.103-7.758,7.758-7.758H128
		c4.655,0,7.758,3.103,7.758,7.758S132.655,295.564,128,295.564z"/>
	<rect x="87.661" y="333.576" style="fill:#193651;" width="15.515" height="13.188"/>
	<rect x="123.345" y="333.576" style="fill:#193651;" width="15.515" height="13.188"/>
	<rect x="159.03" y="333.576" style="fill:#193651;" width="15.515" height="13.188"/>
</g>
<path style="fill:#E1E6E9;" d="M314.958,279.273c-8.533,4.655-11.636,14.739-6.982,23.273l81.455,155.927l30.255-15.515
	L338.23,287.03C333.576,278.497,323.491,275.394,314.958,279.273z"/>
<path style="fill:#193651;" d="M426.667,439.079l-82.23-155.927c-6.206-12.412-21.721-17.067-33.358-10.861
	c-12.412,6.206-17.067,20.945-10.861,33.358l81.455,155.927c1.552,2.327,3.879,3.879,6.982,3.879c1.552,0,2.327,0,3.879-0.776
	l30.255-15.515c1.552-0.776,3.103-2.327,3.879-4.655C427.442,442.958,427.442,440.63,426.667,439.079z M392.533,447.612
	l-77.576-148.945c-2.327-4.655-0.776-10.085,3.879-12.412c4.655-2.327,10.085-0.776,12.412,3.879L409.6,439.079L392.533,447.612z"/>
<path style="fill:#4FBF9F;" d="M419.685,197.818c-15.515,0-27.927,12.412-27.927,27.927v6.206h55.079v-6.206
	C447.612,210.23,435.2,197.818,419.685,197.818z"/>
<path style="fill:#193651;" d="M391.758,239.709c-2.327,0-3.879-0.776-5.43-2.327c-1.552-1.551-2.327-3.103-2.327-5.43v-6.206
	c0-19.394,15.515-35.685,35.685-35.685c19.394,0,35.685,15.515,35.685,35.685v6.206c0,4.655-3.103,7.758-7.758,7.758H391.758z
	 M419.685,205.576c-10.861,0-19.394,8.533-20.17,18.618h39.564C439.079,214.109,430.545,205.576,419.685,205.576z"/>
<rect x="391.758" y="231.952" style="fill:#4FBF9F;" width="55.079" height="60.509"/>
<path style="fill:#193651;" d="M447.612,300.218h-55.079c-4.655,0-7.758-3.103-7.758-7.758v-60.509c0-4.655,3.103-7.758,7.758-7.758
	h55.079c2.327,0,3.879,0.776,5.43,2.327s2.327,3.103,2.327,5.43v60.509C455.37,297.115,451.491,300.218,447.612,300.218z
	 M399.515,284.703h39.564v-44.994h-39.564V284.703z"/>
<g>
</g>
<g>
</g>
<g>
</g>
<g>
</g>
<g>
</g>
<g>
</g>
<g>
</g>
<g>
</g>
<g>
</g>
<g>
</g>
<g>
</g>
<g>
</g>
<g>
</g>
<g>
</g>
<g>
</g>
</svg>
